<svg xmlns="http://www.w3.org/2000/svg" viewBox="0 0 408.04 408.04"><defs><style>.cls-1{fill:#13151c;}.cls-2{fill:#fff;}</style></defs>
<g id="CONTENT">
<path class="cls-1" d="M299.82,320.89A140.09,140.09,0,1,0,439.9,461,140.09,140.09,0,0,0,299.82,320.89Zm0,159.87A19.79,19.79,0,1,1,319.6,461,19.79,19.79,0,0,1,299.82,480.76Z" transform="translate(-95.8 -256.96)"/>
<path class="cls-2" d="M299.81,257c-112.67,0-204,91.34-204,204a204,204,0,0,0,204,204A199.58,199.58,0,0,0,323,663.67,203.45,203.45,0,0,0,447.9,601.32c2-2.07,3.89-4.18,5.76-6.33s3.94-4.62,5.84-7a203.58,203.58,0,0,0,33.65-61.66q.64-1.91,1.26-3.84,1-3.15,1.88-6.34A204,204,0,0,0,503.84,461C503.84,348.3,412.5,257,299.81,257ZM451.67,373.31a52.65,52.65,0,0,1-12.93,67.61q-1.42,1.13-2.94,2.16c-1.1.74-2.24,1.46-3.4,2.13A52.64,52.64,0,0,1,379.76,354c1.16-.67,2.35-1.29,3.53-1.86s2.23-1,3.36-1.47A52.61,52.61,0,0,1,451.67,373.31ZM269.41,461a11.28,11.28,0,1,1-11.28-11.28A11.28,11.28,0,0,1,269.41,461Zm3.93-45.88a11.28,11.28,0,1,1-4.14,15.42A11.29,11.29,0,0,1,273.34,415.11Zm-4.14,76.34a11.28,11.28,0,1,1,4.14,15.4A11.28,11.28,0,0,1,269.2,491.45ZM283.86,461a15.95,15.95,0,1,1,15.95,15.95A15.95,15.95,0,0,1,283.86,461Zm27-41.74a11.28,11.28,0,1,1,4.14,15.4A11.3,11.3,0,0,1,310.88,419.25ZM315,487.31a11.28,11.28,0,1,1-4.14,15.4A11.28,11.28,0,0,1,315,487.31ZM330.23,461a11.27,11.27,0,1,1,11.26,11.26A11.28,11.28,0,0,1,330.23,461ZM299.81,285.62a52.65,52.65,0,0,1,52.07,45c.18,1.19.31,2.4.4,3.62s.17,2.68.17,4a52.64,52.64,0,1,1-105.28,0c0-1.37,0-2.72.17-4s.22-2.42.4-3.61A52.65,52.65,0,0,1,299.81,285.62ZM148,373.31a52.62,52.62,0,0,1,65-22.59c1.12.44,2.24.93,3.34,1.46s2.36,1.19,3.53,1.86a52.64,52.64,0,1,1-52.64,91.17c-1.17-.67-2.28-1.37-3.38-2.13s-2-1.41-2.94-2.16A52.64,52.64,0,0,1,148,373.31Zm0,175.34a52.64,52.64,0,0,1,13-67.61q1.42-1.12,2.94-2.16c1.1-.76,2.21-1.46,3.38-2.13a52.64,52.64,0,1,1,52.64,91.17c-1.17.67-2.35,1.29-3.53,1.86s-2.22,1-3.34,1.46A52.61,52.61,0,0,1,148,548.65ZM323,630.93a52.66,52.66,0,0,1-75.29-39.59c-.17-1.19-.3-2.39-.39-3.61s-.17-2.68-.17-4a52.64,52.64,0,1,1,105.28,0c0,1.35,0,2.7-.17,4A52.52,52.52,0,0,1,323,630.93ZM458.73,522.49a53.13,53.13,0,0,1-.49,7,52.66,52.66,0,0,1-74.95,40.29c-1.18-.57-2.37-1.19-3.53-1.86a52.64,52.64,0,0,1,52.64-91.17c1.16.67,2.3,1.39,3.4,2.13s2,1.41,2.94,2.16a52.54,52.54,0,0,1,19.62,35.11A53.66,53.66,0,0,1,458.73,522.49Z" transform="translate(-95.8 -256.96)"/>
</g>
</svg>
