<svg xmlns="http://www.w3.org/2000/svg" viewBox="0 0 60 50.06"><defs><style>.cls-1{fill:#f2f4f5;}</style></defs>
    <g id="Layer_1" data-name="Layer 1" style="opacity:0.7;">
        <path class="cls-1" d="M42.27,58.24v0a.25.25,0,0,1-.35.11l-.21-.09a.27.27,0,0,1-.16-.34l.18-.39q-.53-.68-1-1.38a.73.73,0,0,1-.32-.09A14.88,14.88,0,0,1,38,54.39,12.66,12.66,0,0,1,35.81,52c-.22-.32-.21-.71,0-.82l2-1.28c-.1-.37-.19-.73-.27-1.1l-2.42,1.24a.42.42,0,0,1-.39,0,.82.82,0,0,1-.34-.39,13.14,13.14,0,0,1-.92-3,16.48,16.48,0,0,1-.24-2.89.54.54,0,0,1,.5-.58l3.31.1c0-.34,0-.68.06-1L33.86,42a.5.5,0,0,1-.45-.56c.07-.79.14-1.51.19-2.19,0-.17,0-.34,0-.5l0-.55c0-.3,0-.59,0-.89a.46.46,0,0,1,.48-.4l4.12-.06c.12-.36.26-.72.41-1.08l-4.56.32a.46.46,0,0,1-.52-.35,11.9,11.9,0,0,0-.76-3.23.45.45,0,0,1,.31-.52l5.73-2.46a.53.53,0,0,1,.67.36,18.56,18.56,0,0,1,.8,2.6c.22-.35.44-.69.68-1l0-.06L41,31.18a.3.3,0,0,1,.14-.37l.59-.18h0q.22-.3.48-.6a20.69,20.69,0,0,0-.9-2.25A20.24,20.24,0,0,0,39,24a21.18,21.18,0,0,0-3-3.17,22.61,22.61,0,0,0-3.49-2.44,25.69,25.69,0,0,0-3.74-1.73A30.33,30.33,0,0,0,21,15l-1,11.3a18.62,18.62,0,0,1,4.78,1,12.45,12.45,0,0,1,3.82,2.17A9.18,9.18,0,0,1,31,32.6a10.51,10.51,0,0,1,.94,4c0,.36,0,.74,0,1.13,0,.09,0,.19,0,.28l0,.41c0,.22,0,.45,0,.69,0,.48-.09,1-.14,1.54s-.1,1.15-.13,1.8-.05,1.35,0,2.1A17.13,17.13,0,0,0,31.81,47a14.28,14.28,0,0,0,.68,2.5,14.88,14.88,0,0,0,1.1,2.35l.17.28.08.13.06.1.12.18.18.28c.24.36.5.72.77,1.06a14.32,14.32,0,0,0,1.84,1.89,15.39,15.39,0,0,0,2,1.46c.66.41,1.31.75,1.91,1s1.18.54,1.71.77l.86.36C42.94,59,42.6,58.62,42.27,58.24Zm-1-29.36.1.25a.29.29,0,0,1-.1.39l-.57.21a.28.28,0,0,1-.34-.2l-.1-.24a.29.29,0,0,1,.1-.38l.56-.24C41.1,28.61,41.25,28.71,41.32,28.88Zm-1-2.08.13.23c.08.17.06.35-.06.41l-.55.28c-.11.06-.27,0-.36-.17l-.12-.22a.3.3,0,0,1,.06-.4l.53-.3C40.07,26.56,40.24,26.64,40.33,26.8ZM39.2,25l.15.22a.29.29,0,0,1,0,.41l-.51.33a.28.28,0,0,1-.38-.13l-.14-.2a.29.29,0,0,1,0-.4l.49-.36A.29.29,0,0,1,39.2,25Zm-1.31-1.67.18.2a.3.3,0,0,1,0,.41l-.47.38a.29.29,0,0,1-.39-.08L37.07,24a.3.3,0,0,1,0-.4l.46-.41C37.59,23.14,37.77,23.18,37.89,23.32Zm-8.16,4.2a.44.44,0,0,1-.59.15,14,14,0,0,0-3-1.71.45.45,0,0,1-.19-.6l2.3-5.79a.52.52,0,0,1,.7-.24,21.61,21.61,0,0,1,4.51,2.58.53.53,0,0,1,.16.74Zm6.7-5.72.19.18a.3.3,0,0,1,.07.4l-.43.44a.3.3,0,0,1-.4-.05l-.18-.17a.29.29,0,0,1-.06-.39l.41-.45A.29.29,0,0,1,36.43,21.8ZM34.7,20.35l.21.16a.28.28,0,0,1,.1.39l-.38.48a.28.28,0,0,1-.39,0l-.19-.14a.28.28,0,0,1-.11-.38l.36-.49A.29.29,0,0,1,34.7,20.35ZM33,19.2l.22.13a.28.28,0,0,1,.13.38l-.33.51a.29.29,0,0,1-.39,0l-.2-.13a.27.27,0,0,1-.14-.36l.32-.52A.27.27,0,0,1,33,19.2Zm-1.76-1,.23.11a.29.29,0,0,1,.16.36l-.29.54a.27.27,0,0,1-.38.07l-.21-.11a.27.27,0,0,1-.16-.35l.27-.55A.27.27,0,0,1,31.25,18.21Zm-1.8-.83.22.1a.28.28,0,0,1,.19.34l-.24.56a.27.27,0,0,1-.37.1L29,18.39a.27.27,0,0,1-.18-.33l.22-.57A.29.29,0,0,1,29.45,17.38ZM22,16.58l-.23,0a.26.26,0,0,1-.25-.27l.06-.61a.28.28,0,0,1,.32-.21l.23,0a.27.27,0,0,1,.26.28l-.08.6A.28.28,0,0,1,22,16.58Zm1.79.27-.22,0a.26.26,0,0,1-.24-.28l.1-.61a.26.26,0,0,1,.33-.18l.23,0c.17,0,.28.16.25.29l-.12.6A.26.26,0,0,1,23.76,16.85Zm1.8.4-.22-.06a.26.26,0,0,1-.23-.3l.14-.59a.27.27,0,0,1,.35-.17l.23.06a.28.28,0,0,1,.23.31l-.16.59A.27.27,0,0,1,25.56,17.25Zm1.35.13.18-.59a.27.27,0,0,1,.36-.13l.23.07a.27.27,0,0,1,.21.33l-.19.57a.28.28,0,0,1-.36.14l-.22-.07A.28.28,0,0,1,26.91,17.38Zm-6.27,6.71.67-6.2a.51.51,0,0,1,.6-.41,27.12,27.12,0,0,1,4.88,1.06.51.51,0,0,1,.38.63l-2,5.9a.44.44,0,0,1-.53.33A20.42,20.42,0,0,0,21,24.62.47.47,0,0,1,20.64,24.09ZM20.79,26l-.16,0a.23.23,0,0,1-.17-.26l.07-.61a.21.21,0,0,1,.23-.21l.17,0a.22.22,0,0,1,.17.26l-.08.61A.23.23,0,0,1,20.79,26Zm1.23.19-.15,0a.22.22,0,0,1-.15-.27l.1-.6a.22.22,0,0,1,.24-.2l.16,0a.23.23,0,0,1,.16.27l-.12.6A.23.23,0,0,1,22,26.19Zm1.2.26-.15,0a.23.23,0,0,1-.13-.28l.14-.6a.21.21,0,0,1,.25-.18l.16,0a.24.24,0,0,1,.13.29l-.16.59A.21.21,0,0,1,23.22,26.45Zm1.15.34-.14-.05a.21.21,0,0,1-.11-.28l.18-.59a.23.23,0,0,1,.26-.17l.15.05a.22.22,0,0,1,.11.29l-.2.58A.21.21,0,0,1,24.37,26.79Zm1.19.44-.14-.05a.23.23,0,0,1-.08-.29l.23-.57a.22.22,0,0,1,.27-.15l.14.06a.2.2,0,0,1,.08.29l-.24.56A.21.21,0,0,1,25.56,27.23Zm1,.49-.13-.07a.22.22,0,0,1-.05-.29l.27-.55a.22.22,0,0,1,.28-.13l.13.07a.21.21,0,0,1,.06.3l-.29.54C26.79,27.7,26.68,27.76,26.59,27.72Zm1,.55-.12-.07c-.08-.05-.09-.18,0-.3l.32-.52a.2.2,0,0,1,.28-.11l.13.08a.22.22,0,0,1,0,.3l-.33.51C27.75,28.27,27.63,28.32,27.55,28.27Zm.88.62-.1-.08c-.08-.06-.07-.19,0-.3L28.7,28a.19.19,0,0,1,.28-.08l.12.08a.21.21,0,0,1,0,.3l-.38.48A.22.22,0,0,1,28.43,28.89Zm.86.74-.09-.09c-.07-.06-.05-.19,0-.29l.41-.45c.09-.1.22-.13.29-.06l.11.1a.21.21,0,0,1,0,.29l-.43.44C29.48,29.66,29.36,29.69,29.29,29.63Zm.7.74-.08-.1c-.06-.06,0-.19.07-.28l.46-.4c.1-.09.23-.11.29,0l.09.1a.21.21,0,0,1-.07.29l-.47.39C30.18,30.42,30.05,30.44,30,30.37Zm.61.8-.07-.1c-.05-.07,0-.19.1-.27l.5-.36c.1-.08.24-.08.29,0l.08.11c.06.08,0,.21-.1.28l-.51.34C30.78,31.24,30.65,31.24,30.6,31.17Zm1.66,0a11.06,11.06,0,0,0-2-2.57.43.43,0,0,1,.05-.6l4.19-4.62a.52.52,0,0,1,.75,0,18.15,18.15,0,0,1,3.28,4.25.54.54,0,0,1-.15.75L32.86,31.3A.45.45,0,0,1,32.26,31.21ZM31.12,32l-.06-.11c0-.07,0-.19.13-.25l.53-.31c.11-.06.25-.05.29,0l.07.13c.05.08,0,.2-.13.26l-.55.28C31.28,32.11,31.16,32.1,31.12,32Zm.45,1-.05-.12c0-.08,0-.19.16-.24l.57-.24a.22.22,0,0,1,.29.07l.05.13a.22.22,0,0,1-.16.25l-.58.21C31.73,33.12,31.6,33.09,31.57,33Zm.33,1,0-.13c0-.08.06-.18.18-.22l.59-.18a.22.22,0,0,1,.28.09l0,.14c0,.1-.06.2-.19.24l-.59.15C32,34.11,31.92,34.06,31.9,34Zm.23,1,0-.13c0-.09.08-.19.21-.21l.6-.12a.22.22,0,0,1,.27.12l0,.15c0,.1-.07.2-.2.22l-.61.09C32.26,35.15,32.14,35.09,32.13,35Zm.14,1.07,0-.14a.22.22,0,0,1,.23-.19l.6-.07c.14,0,.25.06.26.16l0,.15a.23.23,0,0,1-.23.2l-.61,0C32.39,36.23,32.27,36.16,32.27,36.07Zm.28,1.4c-.13,0-.24-.09-.24-.19v-.14c0-.1.11-.18.24-.18h.61a.22.22,0,0,1,.24.19v.15a.22.22,0,0,1-.24.19Zm-.07,1.32a.24.24,0,0,1-.23-.23v-.22a.07.07,0,0,0,0-.05v0h0s0,0,0,0l.06,0a.24.24,0,0,1,.17,0l.61,0a.24.24,0,0,1,.17.06.16.16,0,0,1,0,.07l0,0h0v.28a.22.22,0,0,1-.25.2Zm-.12,1.45a.24.24,0,0,1-.22-.26l0-.19a.23.23,0,0,1,.26-.21l.6.05a.24.24,0,0,1,.22.26v.19a.24.24,0,0,1-.26.22Zm-.14,1.67a.26.26,0,0,1-.22-.29l0-.22a.26.26,0,0,1,.26-.25l.61.05a.26.26,0,0,1,.22.29l0,.21a.26.26,0,0,1-.26.25Zm-.31,1.77v-.26c0-.17.12-.31.25-.3l.61,0c.13,0,.23.14.23.3v.24a.28.28,0,0,1-.24.31h-.61C32,44,31.91,43.85,31.91,43.68Zm.1,2.18,0-.28c0-.2.08-.37.22-.37l.6-.05c.14,0,.25.13.27.31l0,.27c0,.19-.07.35-.2.37l-.6.08C32.17,46.21,32,46.06,32,45.86Zm.46,2.38c0-.1-.06-.2-.08-.3s0-.4.14-.43l.6-.14c.13,0,.27.11.32.3s0,.18.07.28,0,.37-.13.41l-.58.18C32.68,48.58,32.52,48.45,32.47,48.24Zm.88,2.34c-.05-.09-.09-.19-.14-.28s-.05-.4.07-.45l.56-.24c.13,0,.29.06.37.24l.12.26c.09.18.06.37,0,.43l-.55.28C33.61,50.88,33.44,50.78,33.35,50.58Zm1.27,2.19-.17-.26a.51.51,0,0,1-.09-.27v-.05h0l0,0s0,0,.07-.06l.52-.33a.2.2,0,0,1,.18,0,.43.43,0,0,1,.2.18l.16.24c.11.16.12.35,0,.43l-.5.36C34.94,53,34.74,52.94,34.62,52.77Zm1.62,1.94L36,54.48c-.15-.16-.19-.36-.09-.45l.45-.41c.1-.09.29,0,.43.11l.2.21c.14.14.19.33.09.42l-.42.45C36.59,54.9,36.39,54.86,36.24,54.71Zm1.87,1.58-.24-.17c-.16-.13-.23-.32-.15-.42l.38-.48c.08-.11.27-.09.42,0l.23.16c.15.11.22.29.14.4l-.34.5C38.47,56.41,38.28,56.41,38.11,56.29ZM40,57.47l-.23-.13a.3.3,0,0,1-.17-.38l.3-.52a.3.3,0,0,1,.4-.06l.22.12a.29.29,0,0,1,.16.36l-.28.54A.29.29,0,0,1,40,57.47Z" transform="translate(-20 -14.97)"/>
    </g>
    <g id="Layer_2" data-name="Layer 2">    
        <path class="cls-1" d="M80,44.08a21,21,0,1,0-21,21A21,21,0,0,0,80,44.08ZM71.78,56.81a18.36,18.36,0,0,1-2.45,2L63.77,48.44A6.47,6.47,0,0,0,65.19,46l11.8-.4A17.87,17.87,0,0,1,71.78,56.81Zm-20.39-29a18,18,0,0,1,15.32,0l-6.24,10a6.38,6.38,0,0,0-2.84,0Zm-5.07,3.57a18.15,18.15,0,0,1,2.44-2.05l5.57,10.41a6.4,6.4,0,0,0-1.43,2.46l-11.79.39A17.87,17.87,0,0,1,46.32,31.35ZM65.19,42.17a6.51,6.51,0,0,0-1.42-2.46L69.33,29.3a17.63,17.63,0,0,1,2.45,2.05A17.87,17.87,0,0,1,77,42.56Zm-7.53,1.91a1.39,1.39,0,1,1,1.39,1.38A1.39,1.39,0,0,1,57.66,44.08ZM46.32,56.81a17.87,17.87,0,0,1-5.21-11.22L52.9,46a6.36,6.36,0,0,0,1.43,2.45L48.76,58.86A18.93,18.93,0,0,1,46.32,56.81Zm11.31-6.46a6.38,6.38,0,0,0,2.84,0l6.24,10a18.11,18.11,0,0,1-15.32,0Z" transform="translate(-20 -14.97)"/>
    </g>
</svg>